<?xml version="1.0" encoding="utf-8"?>
<!-- Generator: Adobe Illustrator 26.3.1, SVG Export Plug-In . SVG Version: 6.00 Build 0)  -->
<svg version="1.1" id="Layer_1" xmlns="http://www.w3.org/2000/svg" xmlns:xlink="http://www.w3.org/1999/xlink" x="0px" y="0px"
	 viewBox="0 0 653 100" style="enable-background:new 0 0 653 100;" xml:space="preserve">
<style type="text/css">
	.st0{fill:#FFFFFF;}
</style>
<g>
	<polygon class="st0" points="625.8,14.3 618.7,14.3 618.7,7.1 611.5,7.1 611.5,0 554.4,0 554.4,7.1 547.2,7.1 547.2,14.3 
		540.1,14.3 540.1,21.4 540.1,21.4 540.1,50 547.3,50 547.3,57.1 561.6,57.1 561.6,64.3 604.4,64.3 604.4,71.4 597.3,71.4 
		597.3,78.6 568.7,78.6 568.7,71.4 561.6,71.4 561.6,64.3 540.1,64.3 540.1,85.7 547.1,85.7 547.1,92.9 554.1,92.9 554.1,100 
		611.3,100 611.3,92.9 618.5,92.9 618.5,85.7 625.8,85.7 625.8,57.1 618.7,57.1 618.7,50 611.5,50 611.5,42.8 568.7,42.8 
		568.7,35.7 561.6,35.7 561.6,28.6 568.7,28.6 568.7,21.4 597.3,21.4 597.3,28.6 604.4,28.6 604.4,35.7 625.8,35.7 625.8,21.4 
		625.8,21.4 	"/>
	<rect x="166.7" y="0.1" class="st0" width="26.9" height="99.9"/>
	<path class="st0" d="M327.3,0.1L287.5,100h27.1l6.7-17.5l3.1-1.8h34.3l2.9,1.7l6.8,17.7h28.7L357.4,0.1H327.3z M350.7,60.5h-18
		l-2.1-2.1l9.8-27.4h2.3l9.9,27.6L350.7,60.5z"/>
	<polygon class="st0" points="111.7,75.6 111.7,0.1 84.8,0.1 84.8,100 161.2,100 161.2,77.8 114,77.8 	"/>
	<polygon class="st0" points="26.5,75.6 26.5,62.9 29,60.4 65.6,60.4 65.6,38.5 28.5,38.5 26.5,36.5 26.5,23.9 28.2,22.2 77.2,22.2 
		77.2,0 0,0 0,99.9 78.6,99.9 78.6,77.7 28.6,77.7 	"/>
	<polygon class="st0" points="236,74.9 282.9,21 282.9,0.1 200,0.1 200,22.3 246.4,22.3 246.4,25 199.5,79.5 199.5,100 284.2,100 
		284.2,77.8 236,77.8 	"/>
	<polygon class="st0" points="645.3,85.7 638.1,85.7 638.1,92.8 631,92.8 631,100 652.4,100 652.4,78.6 645.3,78.6 	"/>
	<path class="st0" d="M518.7,14.3h-7.1V7.1h-7.2V0h-50v7.1h-7.1v7.1h-7.2v7.2H433v57.1h7.1v7.2h7.2v7.1h7.1v7.1h50v-7.1h7.2v-7.1
		h7.1v-7.1h7.2V21.4h-7.2V14.3z M504.4,64.3h-7.1v7.1h-7.1v7.1h-21.4v-7.1h-7.1v-7.1h-7.2V35.7h7.2v-7.1h7.1v-7.1h21.4v7.1h7.1v7.1
		h7.1V64.3z"/>
	<polygon class="st0" points="425.8,85.7 418.7,85.7 418.7,78.6 411.5,78.6 411.5,100 432.9,100 432.9,92.8 425.8,92.8 	"/>
	<polygon class="st0" points="411.5,21.4 418.7,21.4 418.7,14.3 425.8,14.3 425.8,7.1 432.9,7.1 432.9,0 411.5,0 	"/>
	<polygon class="st0" points="631,0 631,7.1 638.1,7.1 638.1,14.3 645.3,14.3 645.3,21.4 652.4,21.4 652.4,0 	"/>
</g>
</svg>
